<svg width="22" height="22" viewBox="0 0 22 22" fill="none" xmlns="http://www.w3.org/2000/svg">
<circle cx="11" cy="11" r="9" transform="rotate(0.418216 11 11)" stroke="white" stroke-width="2"/>
<path d="M20 11L2 11" stroke="white" stroke-width="2"/>
<path d="M10.3356 2.25259C10.7484 1.88567 11.3805 1.92285 11.7474 2.33564C12.1143 2.74842 12.0771 3.38049 11.6644 3.74741L10.3356 2.25259ZM11.1315 18.3181L11.8133 19.0496L10.3504 20.4133L9.66851 19.6819L11.1315 18.3181ZM11 3C11.6644 3.74741 11.6646 3.74717 11.6649 3.74694C11.665 3.74688 11.6652 3.74666 11.6653 3.74654C11.6656 3.74629 11.6658 3.74609 11.666 3.74594C11.6664 3.74563 11.6665 3.74551 11.6664 3.74558C11.6663 3.7457 11.6653 3.74657 11.6636 3.74816C11.6601 3.75134 11.6534 3.75744 11.6438 3.76642C11.6246 3.78437 11.5937 3.8138 11.5527 3.85436C11.4706 3.93553 11.3485 4.06095 11.1996 4.22796C10.9012 4.56265 10.4989 5.0603 10.0961 5.6997C9.28811 6.98221 8.5 8.79853 8.5 11H6.5C6.5 8.31259 7.46189 6.1289 8.40391 4.63363C8.87609 3.88414 9.34882 3.29846 9.70669 2.89704C9.88592 2.696 10.0372 2.54016 10.1465 2.4321C10.2012 2.37804 10.2455 2.33585 10.2775 2.30585C10.2936 2.29084 10.3066 2.27888 10.3163 2.26999C10.3212 2.26555 10.3253 2.26187 10.3285 2.25897C10.3301 2.25752 10.3315 2.25626 10.3327 2.2552C10.3333 2.25467 10.3338 2.25418 10.3343 2.25375C10.3346 2.25353 10.3349 2.25324 10.335 2.25313C10.3353 2.25286 10.3356 2.25259 11 3ZM8.5 11C8.5 13.2443 9.16563 15.0854 9.83649 16.3706C10.1715 17.0123 10.5051 17.5102 10.7512 17.8433C10.8741 18.0097 10.9746 18.1343 11.0418 18.2144C11.0754 18.2545 11.1006 18.2834 11.116 18.3008C11.1237 18.3095 11.129 18.3153 11.1316 18.3182C11.1329 18.3197 11.1336 18.3204 11.1336 18.3204C11.1336 18.3204 11.1334 18.3202 11.1331 18.3198C11.1329 18.3196 11.1327 18.3194 11.1324 18.3191C11.1323 18.319 11.132 18.3187 11.132 18.3187C11.1317 18.3184 11.1315 18.3181 10.4 19C9.66851 19.6819 9.66824 19.6816 9.66796 19.6813C9.66785 19.6811 9.66755 19.6808 9.66733 19.6806C9.6669 19.6801 9.66641 19.6796 9.66589 19.679C9.66484 19.6779 9.66361 19.6766 9.66221 19.675C9.65941 19.672 9.65591 19.6682 9.65174 19.6636C9.64341 19.6544 9.63239 19.6422 9.61886 19.6269C9.5918 19.5964 9.55468 19.5537 9.50896 19.4991C9.41755 19.39 9.29151 19.2334 9.14253 19.0317C8.84489 18.6287 8.45354 18.0433 8.06351 17.2961C7.28437 15.8035 6.5 13.6446 6.5 11H8.5Z" fill="white"/>
<path d="M11.6644 2.25259L10.917 1.58823L9.58823 3.08305L10.3356 3.74741L11.6644 2.25259ZM10.8685 18.3181C10.4919 18.7221 10.5142 19.3549 10.9181 19.7315C11.3221 20.1081 11.9549 20.0858 12.3315 19.6819L10.8685 18.3181ZM11 3C10.3356 3.74741 10.3354 3.74717 10.3351 3.74694C10.335 3.74688 10.3348 3.74666 10.3347 3.74654C10.3344 3.74629 10.3342 3.74609 10.334 3.74594C10.3336 3.74563 10.3335 3.74551 10.3336 3.74558C10.3337 3.7457 10.3347 3.74657 10.3364 3.74816C10.3399 3.75134 10.3466 3.75744 10.3562 3.76642C10.3754 3.78437 10.4063 3.8138 10.4473 3.85436C10.5294 3.93553 10.6515 4.06095 10.8004 4.22796C11.0988 4.56265 11.5011 5.0603 11.9039 5.6997C12.7119 6.98221 13.5 8.79853 13.5 11H15.5C15.5 8.31259 14.5381 6.1289 13.5961 4.63363C13.1239 3.88414 12.6512 3.29846 12.2933 2.89704C12.1141 2.696 11.9628 2.54016 11.8535 2.4321C11.7988 2.37804 11.7545 2.33585 11.7225 2.30585C11.7064 2.29084 11.6934 2.27888 11.6837 2.26999C11.6788 2.26555 11.6747 2.26187 11.6715 2.25897C11.6699 2.25752 11.6685 2.25626 11.6673 2.2552C11.6667 2.25467 11.6662 2.25418 11.6657 2.25375C11.6654 2.25353 11.6651 2.25324 11.665 2.25313C11.6647 2.25286 11.6644 2.25259 11 3ZM13.5 11C13.5 13.2443 12.8344 15.0854 12.1635 16.3706C11.8285 17.0123 11.4949 17.5102 11.2488 17.8433C11.1259 18.0097 11.0254 18.1343 10.9582 18.2144C10.9246 18.2545 10.8994 18.2834 10.884 18.3008C10.8763 18.3095 10.871 18.3153 10.8684 18.3182C10.8671 18.3197 10.8664 18.3204 10.8664 18.3204C10.8664 18.3204 10.8666 18.3202 10.8669 18.3198C10.8671 18.3196 10.8673 18.3194 10.8676 18.3191C10.8677 18.319 10.868 18.3187 10.868 18.3187C10.8683 18.3184 10.8685 18.3181 11.6 19C12.3315 19.6819 12.3318 19.6816 12.332 19.6813C12.3322 19.6811 12.3324 19.6808 12.3327 19.6806C12.3331 19.6801 12.3336 19.6796 12.3341 19.679C12.3352 19.6779 12.3364 19.6766 12.3378 19.675C12.3406 19.672 12.3441 19.6682 12.3483 19.6636C12.3566 19.6544 12.3676 19.6422 12.3811 19.6269C12.4082 19.5964 12.4453 19.5537 12.491 19.4991C12.5824 19.39 12.7085 19.2334 12.8575 19.0317C13.1551 18.6287 13.5465 18.0433 13.9365 17.2961C14.7156 15.8035 15.5 13.6446 15.5 11H13.5Z" fill="white"/>
</svg>
