<svg width="154" height="61" viewBox="0 0 154 61" fill="none" xmlns="http://www.w3.org/2000/svg">
<g filter="url(#filter0_d_70_174)">
<circle cx="30" cy="27" r="20" fill="url(#paint0_linear_70_174)"/>
</g>
<rect x="20" y="17" width="4" height="15" fill="white"/>
<rect x="36" y="17" width="4" height="15" fill="white"/>
<path d="M40 26L20 19V23L40 30V26Z" fill="white"/>
<rect x="28" y="17" width="4" height="20" fill="white"/>
<path d="M77.3984 35H73.8828L67.0391 23.7734V35H63.5234V17.9375H67.0391L73.8945 29.1875V17.9375H77.3984V35ZM86.082 35.2344C84.2227 35.2344 82.707 34.6641 81.5352 33.5234C80.3711 32.3828 79.7891 30.8633 79.7891 28.9648V28.6367C79.7891 27.3633 80.0352 26.2266 80.5273 25.2266C81.0195 24.2188 81.7148 23.4453 82.6133 22.9062C83.5195 22.3594 84.5508 22.0859 85.707 22.0859C87.4414 22.0859 88.8047 22.6328 89.7969 23.7266C90.7969 24.8203 91.2969 26.3711 91.2969 28.3789V29.7617H83.2227C83.332 30.5898 83.6602 31.2539 84.207 31.7539C84.7617 32.2539 85.4609 32.5039 86.3047 32.5039C87.6094 32.5039 88.6289 32.0312 89.3633 31.0859L91.0273 32.9492C90.5195 33.668 89.832 34.2305 88.9648 34.6367C88.0977 35.0352 87.1367 35.2344 86.082 35.2344ZM85.6953 24.8281C85.0234 24.8281 84.4766 25.0547 84.0547 25.5078C83.6406 25.9609 83.375 26.6094 83.2578 27.4531H87.9688V27.1836C87.9531 26.4336 87.75 25.8555 87.3594 25.4492C86.9688 25.0352 86.4141 24.8281 85.6953 24.8281ZM104.645 28.7773C104.645 30.7305 104.199 32.2969 103.309 33.4766C102.426 34.6484 101.23 35.2344 99.7227 35.2344C98.4414 35.2344 97.4062 34.7891 96.6172 33.8984V39.875H93.2305V22.3203H96.3711L96.4883 23.5625C97.3086 22.5781 98.3789 22.0859 99.6992 22.0859C101.262 22.0859 102.477 22.6641 103.344 23.8203C104.211 24.9766 104.645 26.5703 104.645 28.6016V28.7773ZM101.258 28.5312C101.258 27.3516 101.047 26.4414 100.625 25.8008C100.211 25.1602 99.6055 24.8398 98.8086 24.8398C97.7461 24.8398 97.0156 25.2461 96.6172 26.0586V31.25C97.0312 32.0859 97.7695 32.5039 98.832 32.5039C100.449 32.5039 101.258 31.1797 101.258 28.5312ZM110.809 19.2031V22.3203H112.977V24.8047H110.809V31.1328C110.809 31.6016 110.898 31.9375 111.078 32.1406C111.258 32.3438 111.602 32.4453 112.109 32.4453C112.484 32.4453 112.816 32.418 113.105 32.3633V34.9297C112.441 35.1328 111.758 35.2344 111.055 35.2344C108.68 35.2344 107.469 34.0352 107.422 31.6367V24.8047H105.57V22.3203H107.422V19.2031H110.809ZM122.457 33.7109C121.621 34.7266 120.465 35.2344 118.988 35.2344C117.629 35.2344 116.59 34.8438 115.871 34.0625C115.16 33.2812 114.797 32.1367 114.781 30.6289V22.3203H118.168V30.5117C118.168 31.832 118.77 32.4922 119.973 32.4922C121.121 32.4922 121.91 32.0938 122.34 31.2969V22.3203H125.738V35H122.551L122.457 33.7109ZM131.41 22.3203L131.516 23.7852C132.422 22.6523 133.637 22.0859 135.16 22.0859C136.504 22.0859 137.504 22.4805 138.16 23.2695C138.816 24.0586 139.152 25.2383 139.168 26.8086V35H135.781V26.8906C135.781 26.1719 135.625 25.6523 135.312 25.332C135 25.0039 134.48 24.8398 133.754 24.8398C132.801 24.8398 132.086 25.2461 131.609 26.0586V35H128.223V22.3203H131.41ZM147.582 35.2344C145.723 35.2344 144.207 34.6641 143.035 33.5234C141.871 32.3828 141.289 30.8633 141.289 28.9648V28.6367C141.289 27.3633 141.535 26.2266 142.027 25.2266C142.52 24.2188 143.215 23.4453 144.113 22.9062C145.02 22.3594 146.051 22.0859 147.207 22.0859C148.941 22.0859 150.305 22.6328 151.297 23.7266C152.297 24.8203 152.797 26.3711 152.797 28.3789V29.7617H144.723C144.832 30.5898 145.16 31.2539 145.707 31.7539C146.262 32.2539 146.961 32.5039 147.805 32.5039C149.109 32.5039 150.129 32.0312 150.863 31.0859L152.527 32.9492C152.02 33.668 151.332 34.2305 150.465 34.6367C149.598 35.0352 148.637 35.2344 147.582 35.2344ZM147.195 24.8281C146.523 24.8281 145.977 25.0547 145.555 25.5078C145.141 25.9609 144.875 26.6094 144.758 27.4531H149.469V27.1836C149.453 26.4336 149.25 25.8555 148.859 25.4492C148.469 25.0352 147.914 24.8281 147.195 24.8281Z" fill="white"/>
<defs>
<filter id="filter0_d_70_174" x="0" y="0.333333" width="60" height="60" filterUnits="userSpaceOnUse" color-interpolation-filters="sRGB">
<feFlood flood-opacity="0" result="BackgroundImageFix"/>
<feColorMatrix in="SourceAlpha" type="matrix" values="0 0 0 0 0 0 0 0 0 0 0 0 0 0 0 0 0 0 127 0" result="hardAlpha"/>
<feOffset dy="3.33333"/>
<feGaussianBlur stdDeviation="5"/>
<feComposite in2="hardAlpha" operator="out"/>
<feColorMatrix type="matrix" values="0 0 0 0 0.188235 0 0 0 0 0.529412 0 0 0 0 0.933333 0 0 0 0.4 0"/>
<feBlend mode="normal" in2="BackgroundImageFix" result="effect1_dropShadow_70_174"/>
<feBlend mode="normal" in="SourceGraphic" in2="effect1_dropShadow_70_174" result="shape"/>
</filter>
<linearGradient id="paint0_linear_70_174" x1="16.6667" y1="12.4167" x2="43.75" y2="41.5833" gradientUnits="userSpaceOnUse">
<stop stop-color="#2D91EF"/>
<stop offset="1" stop-color="#3E54E8"/>
</linearGradient>
</defs>
</svg>
